<svg width="20" height="24" viewBox="0 0 20 24" fill="none" xmlns="http://www.w3.org/2000/svg">
<path d="M18.454 6.12276C18.9076 5.65988 19.1572 5.04516 19.1572 4.39124C19.1572 3.73733 18.9076 3.12261 18.454 2.65973L16.5508 0.717588C16.0972 0.254707 15.4948 0 14.854 0C14.2132 0 13.6108 0.254707 13.1584 0.716363L0.400024 13.6954V19.1018H5.69562L18.454 6.12276ZM14.854 2.4491L16.7584 4.39002L14.8504 6.32971L12.9472 4.3888L14.854 2.4491ZM2.80002 16.6527V14.7118L11.248 6.11786L13.1512 8.06L4.70442 16.6527H2.80002ZM0.400024 21.5509H19.6V24H0.400024V21.5509Z" fill="#272727"/>
</svg>
